<svg id="visual" viewBox="0 0 900 700" width="900" height="700" xmlns="http://www.w3.org/2000/svg" xmlns:xlink="http://www.w3.org/1999/xlink" version="1.1"><path d="M0 224L21.5 235.5C43 247 86 270 128.8 283.8C171.7 297.7 214.3 302.3 257.2 313.3C300 324.3 343 341.7 385.8 317.2C428.7 292.7 471.3 226.3 514.2 217.2C557 208 600 256 642.8 252.7C685.7 249.3 728.3 194.7 771.2 168C814 141.3 857 142.7 878.5 143.3L900 144L900 0L878.5 0C857 0 814 0 771.2 0C728.3 0 685.7 0 642.8 0C600 0 557 0 514.2 0C471.3 0 428.7 0 385.8 0C343 0 300 0 257.2 0C214.3 0 171.7 0 128.8 0C86 0 43 0 21.5 0L0 0Z" fill="#DEB045" stroke-linecap="round" stroke-linejoin="miter"></path></svg>