<svg id="visual" viewBox="0 0 900 300" width="900" height="300" xmlns="http://www.w3.org/2000/svg" xmlns:xlink="http://www.w3.org/1999/xlink" version="1.1"><path d="M0 202L16.7 200.3C33.3 198.7 66.7 195.3 100 194.7C133.3 194 166.7 196 200 199.3C233.3 202.7 266.7 207.3 300 209.5C333.3 211.7 366.7 211.3 400 211C433.3 210.7 466.7 210.3 500 210.3C533.3 210.3 566.7 210.7 600 204.8C633.3 199 666.7 187 700 180.7C733.3 174.3 766.7 173.7 800 178C833.3 182.3 866.7 191.7 883.3 196.3L900 201L900 301L883.3 301C866.7 301 833.3 301 800 301C766.7 301 733.3 301 700 301C666.7 301 633.3 301 600 301C566.7 301 533.3 301 500 301C466.7 301 433.3 301 400 301C366.7 301 333.3 301 300 301C266.7 301 233.3 301 200 301C166.7 301 133.3 301 100 301C66.7 301 33.3 301 16.7 301L0 301Z" fill="#E7E7E2" stroke-linecap="round" stroke-linejoin="miter"></path></svg>