<svg id="visual" viewBox="0 0 900 600" width="900" height="600" xmlns="http://www.w3.org/2000/svg" xmlns:xlink="http://www.w3.org/1999/xlink" version="1.1"><path d="M0 146L21.5 142.7C43 139.3 86 132.7 128.8 130.8C171.7 129 214.3 132 257.2 125.5C300 119 343 103 385.8 99.5C428.7 96 471.3 105 514.2 114.3C557 123.7 600 133.3 642.8 142C685.7 150.7 728.3 158.3 771.2 152.5C814 146.7 857 127.3 878.5 117.7L900 108L900 0L878.5 0C857 0 814 0 771.2 0C728.3 0 685.7 0 642.8 0C600 0 557 0 514.2 0C471.3 0 428.7 0 385.8 0C343 0 300 0 257.2 0C214.3 0 171.7 0 128.8 0C86 0 43 0 21.5 0L0 0Z" fill="#DEB045" stroke-linecap="round" stroke-linejoin="miter"></path></svg>