<svg id="visual" viewBox="0 0 900 600" width="900" height="600" xmlns="http://www.w3.org/2000/svg" xmlns:xlink="http://www.w3.org/1999/xlink" version="1.1"><path d="M0 288L18.8 274.5C37.7 261 75.3 234 112.8 235C150.3 236 187.7 265 225.2 288.2C262.7 311.3 300.3 328.7 337.8 336.8C375.3 345 412.7 344 450.2 316.3C487.7 288.7 525.3 234.3 562.8 217.7C600.3 201 637.7 222 675.2 243C712.7 264 750.3 285 787.8 290.8C825.3 296.7 862.7 287.3 881.3 282.7L900 278L900 0L881.3 0C862.7 0 825.3 0 787.8 0C750.3 0 712.7 0 675.2 0C637.7 0 600.3 0 562.8 0C525.3 0 487.7 0 450.2 0C412.7 0 375.3 0 337.8 0C300.3 0 262.7 0 225.2 0C187.7 0 150.3 0 112.8 0C75.3 0 37.7 0 18.8 0L0 0Z" fill="#011931" stroke-linecap="round" stroke-linejoin="miter"></path></svg>